<svg xmlns="http://www.w3.org/2000/svg" viewBox="0 0 329.02 380.41"><title>COA badge no NC blue</title><path d="M434.21,352c-.17-1.05-2.77.33-2.93-.73-.24-8.55.48-18.06-.37-26-1.82.08-2.91,2.5-5.13,2.57-3.1.08-8.68-4.78-11.72-6.6-11.72-7-25-14.46-34.44-21.24-1.32-7.59.84-18.67-1.09-25.65-2.19.11-2.44,1.86-4,2.57-2,.36-5.81.78-7.7,0v-71.8c-3.24,1-4.55,3.71-9.89,2.56-6.69-4.91-14.08-9.12-20.14-14.65-1.24-.23-3.41.47-4-.37V180.91c-1.56-.76-3.09-1.55-3.3-3.66-5.46-.16-12.79,1.56-11.36-5.5-2.43.12-2.29-2.34-4-2.93H303.43c-.8,1.41-1.7,2.7-3.66,2.93.57,2.78-.55,3.85-1.47,5.13-2.66.76-6.64.2-9.89.37-.12,2.44-2.36,2.77-3.3,4.39V193h-5.49a71.69,71.69,0,0,1-9.16,7.69c-4.81,3.68-8.63,8.34-17.58,7-1.6-.59-1.54-2.85-4-2.56-.86,23.32-.12,48.23-.37,72.16-5.82.94-8.37-1.39-11.72-2.93-1.09,7.71.35,17.94-.73,25.65-9.71,6.45-22.73,14.35-34.07,21.24-2.93,1.78-8.85,7-12.09,6.6-2.09-.26-3.07-3.47-5.13-2.93-.85,8.18-.12,17.95-.36,26.74a5.81,5.81,0,0,0-3.67.73c-5.38,2.56-10.13,6.85-15,9.89-5.2,3.24-10.12,6.43-15.38,9.53,3.35,10.81,6.92,21.4,12.45,30H450.32c5.47-9.06,8.92-20.14,12.46-31.13C453.77,363.93,443.58,358.36,434.21,352Zm-154.87-69.6H262.85V217.91h16.49Zm24.62,0H287.47V217.91H304Zm24.62,0H312.09V217.91h16.49Zm24.62,0H336.72V217.91H353.2Z" transform="translate(-142.03 -168.82)" fill="#004987" fill-rule="evenodd"/><path d="M170.37,434H156.51v-2.78H187.3V434H173.44v49.31h-3.07Z" transform="translate(-142.03 -168.82)" fill="#004987"/><path d="M193,431.24h3.07v22.84h22.83V431.24h3.06v52.09h-3.06V456.85H196.05v26.48H193Z" transform="translate(-142.03 -168.82)" fill="#004987"/><path d="M231.93,431.24H256.8V434H235V454.8h20.36v2.78H235v23h22.47v2.78H231.93Z" transform="translate(-142.03 -168.82)" fill="#004987"/><path d="M296,464.65v1.1c0,9.41-3.79,18.6-16.05,18.6-13.12,0-17.21-8.46-17.21-27.06s4.09-27.07,17.29-27.07c14.81,0,15.68,10.94,15.68,16.34v.95h-8.31v-.87c0-4.82-1.46-10.36-7.45-10.14-6.12,0-8.89,3.79-8.89,20.57s2.77,21,8.89,21c6.93,0,7.74-7.73,7.74-12.54v-.88Z" transform="translate(-142.03 -168.82)" fill="#004987"/><path d="M302.53,431.24h8.32v52.09h-8.32Z" transform="translate(-142.03 -168.82)" fill="#004987"/><path d="M328.72,438.25h-12.4v-7h32.89v7H337v45.08h-8.31Z" transform="translate(-142.03 -168.82)" fill="#004987"/><path d="M363.87,463l-13.42-31.74h9.26l8.76,22.47,9-22.47h8.68L372.19,463v20.35h-8.32Z" transform="translate(-142.03 -168.82)" fill="#004987"/><path d="M423.32,457.29c0,22.83-9.41,26.91-16.78,26.91-10,0-16.85-6.71-16.85-26.91s7.3-26.92,16.85-26.92C416.9,430.37,423.32,437.08,423.32,457.29Zm-30.57,0c0,14.29,2.92,24.43,13.79,24.43,9.56,0,13.71-7.88,13.71-24.43,0-14.08-3.13-24.44-13.71-24.44C396.33,432.85,392.75,443,392.75,457.29Z" transform="translate(-142.03 -168.82)" fill="#004987"/><path d="M431.63,431.24h24.94V434H434.69V454.8H455v2.78H434.69v25.75h-3.06Z" transform="translate(-142.03 -168.82)" fill="#004987"/><path d="M168.3,540.26h-9.78l-1.46,8H142l12.33-52.09h18.31l12.26,52.09h-15Zm-4.75-32.75h-.14l-3.36,21.38h6.64Z" transform="translate(-142.03 -168.82)" fill="#004987"/><path d="M208.34,509c0-2.19-1-4.23-3.43-4.23-2.19,0-3.36,1.82-3.36,3.94,0,10.36,21.74,5,21.74,23.63,0,12.11-5.62,16.93-19.11,16.93-11.16,0-17.29-3.8-17.29-15.25v-1.38H201V535c0,2.56,1.1,4.6,3.65,4.6s3.57-2.34,3.57-4.6c0-3.35-1.24-4.08-3.13-5.18s-4.6-2.11-7.22-3.42c-7.88-3.94-10.51-6.79-10.51-14.52,0-7.22,2.19-11.16,5.55-13.57,2.48-1.75,6.2-3.21,11.89-3.21,14.73,0,17.21,7.3,17.21,16H208.34Z" transform="translate(-142.03 -168.82)" fill="#004987"/><path d="M250.2,496.13h14.59v52.09H250.2v-21h-7v21H228.61V496.13H243.2V515h7Z" transform="translate(-142.03 -168.82)" fill="#004987"/><path d="M271.57,496.13h31.37V508H286.16v8h15.68v11.38H286.16v9h17.43v11.82h-32Z" transform="translate(-142.03 -168.82)" fill="#004987"/><path d="M330.87,496.13h15.39l-11,52.09H316.43l-10.95-52.09h15.76L326,536.4h.15Z" transform="translate(-142.03 -168.82)" fill="#004987"/><path d="M348.66,496.13h14.59v52.09H348.66Z" transform="translate(-142.03 -168.82)" fill="#004987"/><path d="M369.3,496.13h14.59V536.4h15.9v11.82H369.3Z" transform="translate(-142.03 -168.82)" fill="#004987"/><path d="M404.17,496.13h14.59V536.4h15.9v11.82H404.17Z" transform="translate(-142.03 -168.82)" fill="#004987"/><path d="M439,496.13H470.4V508H453.62v8H469.3v11.38H453.62v9h17.43v11.82H439Z" transform="translate(-142.03 -168.82)" fill="#004987"/></svg>